<?xml version="1.0" encoding="UTF-8"?>
<!DOCTYPE svg PUBLIC "-//W3C//DTD SVG 1.1//EN" "http://www.w3.org/Graphics/SVG/1.1/DTD/svg11.dtd">
<svg xmlns="http://www.w3.org/2000/svg" version="1.1" width="180px" height="180px" style="shape-rendering:geometricPrecision; text-rendering:geometricPrecision; image-rendering:optimizeQuality; fill-rule:evenodd; clip-rule:evenodd" xmlns:xlink="http://www.w3.org/1999/xlink">
<g><path style="opacity:1" fill="#fcfdfc" d="M -0.5,-0.5 C 26.1667,-0.5 52.8333,-0.5 79.5,-0.5C 72.9189,0.564698 66.2523,1.89803 59.5,3.5C 55.1232,5.48244 51.1232,7.81577 47.5,10.5C 45.178,12.664 42.5113,14.3307 39.5,15.5C 37.8333,15.5 36.1667,15.5 34.5,15.5C 34.264,17.9732 32.9307,19.6399 30.5,20.5C 29.1667,18.8333 27.8333,17.1667 26.5,15.5C 24.6187,17.7337 22.2853,19.067 19.5,19.5C 19.4298,22.5669 18.0965,24.9002 15.5,26.5C 16.365,27.5827 17.365,27.7494 18.5,27C 20.6667,24.8333 22.8333,22.6667 25,20.5C 25.4935,22.1341 25.6602,23.8008 25.5,25.5C 24.5,25.5 23.5,25.5 22.5,25.5C 22.5,26.5 22.5,27.5 22.5,28.5C 21.5,28.5 20.5,28.5 19.5,28.5C 20.0768,31.5497 18.9101,33.5497 16,34.5C 15.5065,36.1341 15.3398,37.8008 15.5,39.5C 11.6271,45.0463 8.62714,51.0463 6.5,57.5C 4.7115,61.265 3.2115,65.265 2,69.5C 1.57124,74.0472 0.73791,78.3805 -0.5,82.5C -0.5,54.8333 -0.5,27.1667 -0.5,-0.5 Z"/></g>
<g><path style="opacity:1" fill="#ddfaea" d="M 79.5,-0.5 C 85.5,-0.5 91.5,-0.5 97.5,-0.5C 105.37,0.939908 113.37,2.43991 121.5,4C 125.819,8.04433 130.819,9.54433 136.5,8.5C 137.506,8.93767 137.506,9.60433 136.5,10.5C 140.223,11.9417 142.556,14.6084 143.5,18.5C 141.833,17.8333 140.167,17.1667 138.5,16.5C 138.158,15.6618 137.492,15.3284 136.5,15.5C 135.738,13.7376 134.404,12.7376 132.5,12.5C 123.144,6.38198 112.811,3.04865 101.5,2.5C 97.4123,1.12557 93.079,0.4589 88.5,0.5C 82.8218,0.867814 77.1552,1.36781 71.5,2C 69.2774,2.56619 67.2774,3.39953 65.5,4.5C 62.3511,4.4152 59.6845,5.4152 57.5,7.5C 53.9925,7.92047 50.6592,8.92047 47.5,10.5C 51.1232,7.81577 55.1232,5.48244 59.5,3.5C 66.2523,1.89803 72.9189,0.564698 79.5,-0.5 Z"/></g>
<g><path style="opacity:1" fill="#fdfefe" d="M 97.5,-0.5 C 124.833,-0.5 152.167,-0.5 179.5,-0.5C 179.5,23.5 179.5,47.5 179.5,71.5C 176.442,64.1894 173.442,56.6894 170.5,49C 170.164,47.9701 169.497,47.4701 168.5,47.5C 167.833,47.5 167.5,47.1667 167.5,46.5C 166.377,39.8933 163.044,34.8933 157.5,31.5C 154.452,27.2656 151.118,23.0989 147.5,19C 146.207,18.51 144.873,18.3433 143.5,18.5C 142.556,14.6084 140.223,11.9417 136.5,10.5C 137.506,9.60433 137.506,8.93767 136.5,8.5C 130.819,9.54433 125.819,8.04433 121.5,4C 113.37,2.43991 105.37,0.939908 97.5,-0.5 Z"/></g>
<g><path style="opacity:1" fill="#449a68" d="M 101.5,2.5 C 89.3828,2.13043 77.3828,2.79709 65.5,4.5C 67.2774,3.39953 69.2774,2.56619 71.5,2C 77.1552,1.36781 82.8218,0.867814 88.5,0.5C 93.079,0.4589 97.4123,1.12557 101.5,2.5 Z"/></g>
<g><path style="opacity:1" fill="#0c9443" d="M 101.5,2.5 C 112.811,3.04865 123.144,6.38198 132.5,12.5C 133.035,15.2385 132.035,17.0718 129.5,18C 124.79,18.3751 120.123,19.0418 115.5,20C 112.974,22.7921 109.974,24.9587 106.5,26.5C 105.14,24.0188 104.14,24.3522 103.5,27.5C 104.167,27.8333 104.833,28.1667 105.5,28.5C 105.167,29.1667 104.833,29.8333 104.5,30.5C 105.141,39.6288 105.808,48.6288 106.5,57.5C 107.391,58.1098 108.391,58.4431 109.5,58.5C 104.544,59.8282 99.2109,60.4949 93.5,60.5C 88.1667,60.3333 82.8333,60.1667 77.5,60C 76.6721,59.0853 75.6721,58.4186 74.5,58C 74.8333,57.6667 75.1667,57.3333 75.5,57C 73.2769,56.3483 72.1102,54.8483 72,52.5C 71.8305,41.3257 71.3305,30.3257 70.5,19.5C 70.3893,18.8826 70.056,18.3826 69.5,18C 65.5,17.3333 61.5,17.3333 57.5,18C 54.3394,19.9933 51.0061,21.4933 47.5,22.5C 47.3433,21.1266 47.51,19.7932 48,18.5C 49.8446,17.9505 51.3446,16.9505 52.5,15.5C 50.6565,15.2448 48.6565,15.0781 46.5,15C 47.1258,14.2496 47.6258,13.4162 48,12.5C 51.4338,11.2013 54.6005,9.53464 57.5,7.5C 59.6845,5.4152 62.3511,4.4152 65.5,4.5C 77.3828,2.79709 89.3828,2.13043 101.5,2.5 Z"/></g>
<g><path style="opacity:1" fill="#ecfcf4" d="M 39.5,15.5 C 30.5,22.5 22.5,30.5 15.5,39.5C 15.3398,37.8008 15.5065,36.1341 16,34.5C 18.9101,33.5497 20.0768,31.5497 19.5,28.5C 20.5,28.5 21.5,28.5 22.5,28.5C 22.5,27.5 22.5,26.5 22.5,25.5C 23.5,25.5 24.5,25.5 25.5,25.5C 25.6602,23.8008 25.4935,22.1341 25,20.5C 22.8333,22.6667 20.6667,24.8333 18.5,27C 17.365,27.7494 16.365,27.5827 15.5,26.5C 18.0965,24.9002 19.4298,22.5669 19.5,19.5C 22.2853,19.067 24.6187,17.7337 26.5,15.5C 27.8333,17.1667 29.1667,18.8333 30.5,20.5C 32.9307,19.6399 34.264,17.9732 34.5,15.5C 36.1667,15.5 37.8333,15.5 39.5,15.5 Z"/></g>
<g><path style="opacity:1" fill="#1d8c47" d="M 57.5,7.5 C 54.6005,9.53464 51.4338,11.2013 48,12.5C 47.6258,13.4162 47.1258,14.2496 46.5,15C 48.6565,15.0781 50.6565,15.2448 52.5,15.5C 51.3446,16.9505 49.8446,17.9505 48,18.5C 47.51,19.7932 47.3433,21.1266 47.5,22.5C 51.0061,21.4933 54.3394,19.9933 57.5,18C 61.5,17.3333 65.5,17.3333 69.5,18C 70.056,18.3826 70.3893,18.8826 70.5,19.5C 67.2869,19.19 64.2869,19.5233 61.5,20.5C 56.0631,20.8896 51.3964,22.8896 47.5,26.5C 44.9374,28.6122 43.104,31.2788 42,34.5C 40.9747,46.2787 41.4747,57.9454 43.5,69.5C 41.0181,67.4973 40.0181,64.8306 40.5,61.5C 40.3335,50.8281 40.5002,40.1615 41,29.5C 43.3749,27.1881 44.7083,24.5214 45,21.5C 43.6569,22.2135 42.3236,21.8802 41,20.5C 39.871,22.1412 38.371,23.1412 36.5,23.5C 35.5714,24.9361 34.4048,26.2695 33,27.5C 32.1739,25.5946 31.0072,25.2612 29.5,26.5C 26.4952,29.1639 24.6619,32.4973 24,36.5C 16.6592,40.8426 11.9925,47.1759 10,55.5C 8.88732,56.305 7.72065,56.9717 6.5,57.5C 8.62714,51.0463 11.6271,45.0463 15.5,39.5C 22.5,30.5 30.5,22.5 39.5,15.5C 42.5113,14.3307 45.178,12.664 47.5,10.5C 50.6592,8.92047 53.9925,7.92047 57.5,7.5 Z"/></g>
<g><path style="opacity:1" fill="#fdfefd" d="M 74.5,60.5 C 74.8333,60.5 75.1667,60.5 75.5,60.5C 87.1541,62.2319 99.1541,63.2319 111.5,63.5C 113.898,63.2594 115.898,63.9261 117.5,65.5C 117.858,67.7012 119.192,69.0345 121.5,69.5C 122.162,73.4955 124.495,75.8288 128.5,76.5C 134.077,88.766 135.744,101.599 133.5,115C 133.168,117.492 132.168,119.658 130.5,121.5C 129.675,122.386 128.675,122.719 127.5,122.5C 127.608,124.514 126.942,126.18 125.5,127.5C 122.027,128.242 118.527,128.909 115,129.5C 113.439,129.397 111.939,129.063 110.5,128.5C 109.667,119.345 109.001,110.178 108.5,101C 108.453,98.7047 107.787,96.8714 106.5,95.5C 105.684,93.2137 104.35,91.2137 102.5,89.5C 91.8489,88.6676 81.1822,88.1676 70.5,88C 65.8231,86.8794 61.1564,85.7127 56.5,84.5C 55.0924,83.0892 54.0924,81.4225 53.5,79.5C 53.9186,78.3279 54.5853,77.3279 55.5,76.5C 52.6304,73.5468 49.4637,71.5468 46,70.5C 45.9528,58.2657 45.4528,46.2657 44.5,34.5C 44.9377,33.4937 45.6043,33.4937 46.5,34.5C 47.1667,32.5 47.8333,30.5 48.5,28.5C 50.0421,27.2532 51.5421,27.2532 53,28.5C 56.0688,25.5545 59.5688,23.5545 63.5,22.5C 64.9187,21.5489 66.5853,21.2155 68.5,21.5C 68.3335,33.1714 68.5001,44.8381 69,56.5C 69.8747,59.2146 71.7081,60.5479 74.5,60.5 Z"/></g>
<g><path style="opacity:1" fill="#dffbe7" d="M 143.5,18.5 C 144.873,18.3433 146.207,18.51 147.5,19C 151.118,23.0989 154.452,27.2656 157.5,31.5C 152.859,27.1948 148.193,22.8614 143.5,18.5 Z"/></g>
<g><path style="opacity:1" fill="#1d8a45" d="M 132.5,12.5 C 134.404,12.7376 135.738,13.7376 136.5,15.5C 135.566,16.5676 135.232,17.901 135.5,19.5C 130.5,19.4983 125.833,20.4983 121.5,22.5C 117.195,22.9819 113.861,24.9819 111.5,28.5C 109.526,30.428 108.026,32.7613 107,35.5C 106.5,42.8258 106.334,50.1591 106.5,57.5C 105.808,48.6288 105.141,39.6288 104.5,30.5C 104.833,29.8333 105.167,29.1667 105.5,28.5C 104.833,28.1667 104.167,27.8333 103.5,27.5C 104.14,24.3522 105.14,24.0188 106.5,26.5C 109.974,24.9587 112.974,22.7921 115.5,20C 120.123,19.0418 124.79,18.3751 129.5,18C 132.035,17.0718 133.035,15.2385 132.5,12.5 Z"/></g>
<g><path style="opacity:1" fill="#e2fce7" d="M 61.5,20.5 C 64.1667,20.5 66.8333,20.5 69.5,20.5C 69.1721,31.6794 69.5054,42.6794 70.5,53.5C 71.063,56.2948 72.3963,58.6282 74.5,60.5C 71.7081,60.5479 69.8747,59.2146 69,56.5C 68.5001,44.8381 68.3335,33.1714 68.5,21.5C 66.5853,21.2155 64.9187,21.5489 63.5,22.5C 58.3915,24.1775 53.0582,25.5108 47.5,26.5C 51.3964,22.8896 56.0631,20.8896 61.5,20.5 Z"/></g>
<g><path style="opacity:1" fill="#7bba90" d="M 61.5,20.5 C 64.2869,19.5233 67.2869,19.19 70.5,19.5C 70.5,30.8333 70.5,42.1667 70.5,53.5C 69.5054,42.6794 69.1721,31.6794 69.5,20.5C 66.8333,20.5 64.1667,20.5 61.5,20.5 Z"/></g>
<g><path style="opacity:1" fill="#dbfae9" d="M 157.5,31.5 C 163.044,34.8933 166.377,39.8933 167.5,46.5C 164.174,41.5051 160.841,36.5051 157.5,31.5 Z"/></g>
<g><path style="opacity:1" fill="#09963f" d="M 40.5,61.5 C 39.6909,63.2922 39.1909,65.2922 39,67.5C 38.5495,64.8941 37.0495,63.5608 34.5,63.5C 34.7846,58.1032 34.4512,52.7698 33.5,47.5C 36.4915,43.3812 37.1581,38.8812 35.5,34C 38.9166,30.7622 39.2499,27.2622 36.5,23.5C 38.371,23.1412 39.871,22.1412 41,20.5C 42.3236,21.8802 43.6569,22.2135 45,21.5C 44.7083,24.5214 43.3749,27.1881 41,29.5C 40.5002,40.1615 40.3335,50.8281 40.5,61.5 Z"/></g>
<g><path style="opacity:1" fill="#effbef" d="M 63.5,22.5 C 59.5688,23.5545 56.0688,25.5545 53,28.5C 51.5421,27.2532 50.0421,27.2532 48.5,28.5C 47.8333,30.5 47.1667,32.5 46.5,34.5C 45.6043,33.4937 44.9377,33.4937 44.5,34.5C 45.4528,46.2657 45.9528,58.2657 46,70.5C 49.4637,71.5468 52.6304,73.5468 55.5,76.5C 54.5853,77.3279 53.9186,78.3279 53.5,79.5C 54.0924,81.4225 55.0924,83.0892 56.5,84.5C 50.3531,81.0232 46.0197,76.0232 43.5,69.5C 41.4747,57.9454 40.9747,46.2787 42,34.5C 43.104,31.2788 44.9374,28.6122 47.5,26.5C 53.0582,25.5108 58.3915,24.1775 63.5,22.5 Z"/></g>
<g><path style="opacity:1" fill="#08953b" d="M 136.5,15.5 C 137.492,15.3284 138.158,15.6618 138.5,16.5C 138.281,17.675 138.614,18.675 139.5,19.5C 140.739,19.9424 141.739,20.6091 142.5,21.5C 142.766,37.4231 142.433,53.4231 141.5,69.5C 141.833,71.5 142.167,73.5 142.5,75.5C 145.501,76.7191 145.834,78.0524 143.5,79.5C 142.261,79.0576 141.261,78.3909 140.5,77.5C 139.817,75.8235 138.483,75.1568 136.5,75.5C 136.83,56.6592 136.497,37.9925 135.5,19.5C 135.232,17.901 135.566,16.5676 136.5,15.5 Z"/></g>
<g><path style="opacity:1" fill="#0b9343" d="M 36.5,23.5 C 39.2499,27.2622 38.9166,30.7622 35.5,34C 37.1581,38.8812 36.4915,43.3812 33.5,47.5C 34.4512,52.7698 34.7846,58.1032 34.5,63.5C 37.0495,63.5608 38.5495,64.8941 39,67.5C 39.1909,65.2922 39.6909,63.2922 40.5,61.5C 40.0181,64.8306 41.0181,67.4973 43.5,69.5C 43.8342,72.188 43.1675,74.5214 41.5,76.5C 41.5,94.8333 41.5,113.167 41.5,131.5C 41.8333,132.167 42.1667,132.833 42.5,133.5C 45.035,135.215 44.535,136.215 41,136.5C 38.6646,135.166 36.3313,133.832 34,132.5C 33.228,132.645 32.5613,132.978 32,133.5C 31.8078,131.423 31.3078,129.423 30.5,127.5C 29.8076,128.025 29.3076,128.692 29,129.5C 27.3023,128.267 25.3023,127.6 23,127.5C 21.1667,127.833 19.3333,128.167 17.5,128.5C 17.7093,129.086 18.0426,129.586 18.5,130C 17.1312,131.719 16.1312,133.552 15.5,135.5C 11.9278,131.2 9.76109,126.2 9,120.5C 5.38348,115.443 3.38348,109.776 3,103.5C 2.88863,91.8336 3.22196,80.1669 4,68.5C 6.20878,65.211 7.04212,61.5443 6.5,57.5C 7.72065,56.9717 8.88732,56.305 10,55.5C 11.9925,47.1759 16.6592,40.8426 24,36.5C 24.6619,32.4973 26.4952,29.1639 29.5,26.5C 31.0072,25.2612 32.1739,25.5946 33,27.5C 34.4048,26.2695 35.5714,24.9361 36.5,23.5 Z"/></g>
<g><path style="opacity:1" fill="#0c9443" d="M 142.5,21.5 C 149.209,24.7015 153.209,29.7015 154.5,36.5C 156.311,37.8265 158.311,38.8265 160.5,39.5C 161.833,41.8333 163.167,44.1667 164.5,46.5C 162.711,47.623 162.378,48.9564 163.5,50.5C 164.428,48.6652 165.594,48.3318 167,49.5C 168.46,51.972 169.46,54.6387 170,57.5C 170.708,58.3805 171.542,59.0472 172.5,59.5C 173.735,62.3298 174.735,65.3298 175.5,68.5C 176.62,79.5017 176.62,90.5017 175.5,101.5C 173.529,107.089 171.696,112.756 170,118.5C 169.502,121.482 169.335,124.482 169.5,127.5C 166.065,130.186 163.732,133.686 162.5,138C 160.121,140.384 157.287,141.884 154,142.5C 154.497,144.198 154.33,145.865 153.5,147.5C 149.931,146.861 147.764,148.528 147,152.5C 143.956,153.803 142.789,156.136 143.5,159.5C 140.712,159.077 138.712,160.077 137.5,162.5C 135.176,163.662 132.842,164.829 130.5,166C 129.177,166.816 128.511,167.983 128.5,169.5C 127.609,170.11 126.609,170.443 125.5,170.5C 116.722,172.27 108.056,174.437 99.5,177C 88.1393,177.232 76.806,176.732 65.5,175.5C 64.5084,175.672 63.8417,175.338 63.5,174.5C 58.8877,170.872 53.5543,168.872 47.5,168.5C 42.6063,166.227 38.273,163.227 34.5,159.5C 34.5,158.5 34.5,157.5 34.5,156.5C 31.9854,155.836 29.8187,154.503 28,152.5C 24.3315,146.351 20.1648,140.685 15.5,135.5C 16.1312,133.552 17.1312,131.719 18.5,130C 18.0426,129.586 17.7093,129.086 17.5,128.5C 19.3333,128.167 21.1667,127.833 23,127.5C 25.3023,127.6 27.3023,128.267 29,129.5C 29.3076,128.692 29.8076,128.025 30.5,127.5C 31.3078,129.423 31.8078,131.423 32,133.5C 32.5613,132.978 33.228,132.645 34,132.5C 36.3313,133.832 38.6646,135.166 41,136.5C 44.535,136.215 45.035,135.215 42.5,133.5C 43.8333,133.5 45.1667,133.5 46.5,133.5C 46.5,134.833 46.5,136.167 46.5,137.5C 44.326,137.75 42.6594,138.75 41.5,140.5C 40.8529,141.274 40.5195,142.274 40.5,143.5C 40.7186,145.693 41.3852,147.693 42.5,149.5C 40.7274,150.314 40.2274,151.648 41,153.5C 42.7155,156.397 45.2155,157.731 48.5,157.5C 48.9769,159.338 49.3103,161.172 49.5,163C 54.7522,164.459 58.7522,162.959 61.5,158.5C 62.1667,158.833 62.8333,159.167 63.5,159.5C 64.3333,157.5 65.1667,155.5 66,153.5C 69.5921,153.926 71.0921,155.926 70.5,159.5C 72.4832,159.843 73.8166,159.176 74.5,157.5C 75.1667,157.5 75.5,157.167 75.5,156.5C 76.2216,156.082 76.7216,155.416 77,154.5C 78.2635,156.607 80.0968,157.607 82.5,157.5C 83.172,158.267 84.0053,158.934 85,159.5C 88.8812,159.055 92.3812,157.722 95.5,155.5C 100.532,157.843 105.865,159.176 111.5,159.5C 111.5,158.5 111.5,157.5 111.5,156.5C 111.5,156.167 111.5,155.833 111.5,155.5C 114.167,154.167 116.833,154.167 119.5,155.5C 120.167,155.833 120.833,156.167 121.5,156.5C 121.5,156.833 121.5,157.167 121.5,157.5C 122.261,158.391 123.261,159.058 124.5,159.5C 128.691,159.234 132.191,157.567 135,154.5C 136.563,149.282 136.896,143.949 136,138.5C 134.981,137.313 133.814,136.313 132.5,135.5C 124.76,135.785 116.927,136.118 109,136.5C 106.432,136.066 103.932,135.4 101.5,134.5C 98.7252,135.417 96.2252,134.75 94,132.5C 92.7425,132.85 92.4092,133.517 93,134.5C 94.0674,135.191 95.2341,135.691 96.5,136C 95.2341,136.309 94.0674,136.809 93,137.5C 89.5344,136.798 86.0344,136.131 82.5,135.5C 80.8366,136.875 79.5032,136.542 78.5,134.5C 76.4332,137.865 75.0999,141.532 74.5,145.5C 73.1054,142.38 71.7721,139.213 70.5,136C 68.5,135.333 66.5,135.333 64.5,136C 63.7476,136.671 63.4142,137.504 63.5,138.5C 63.0198,141.443 62.0198,144.11 60.5,146.5C 59.4415,147.6 58.6082,148.934 58,150.5C 57.7216,149.584 57.2216,148.918 56.5,148.5C 56.799,144.47 57.799,140.637 59.5,137C 59,136.5 58.5,136 58,135.5C 54.9269,136.617 51.7603,136.784 48.5,136C 48.0426,135.586 47.7093,135.086 47.5,134.5C 52.236,132.754 57.0694,131.087 62,129.5C 63.0299,129.164 63.5299,128.497 63.5,127.5C 68.5148,125.637 71.0148,121.97 71,116.5C 71.1851,109.253 71.6851,102.087 72.5,95C 71.6243,93.4152 70.2909,92.4152 68.5,92C 77.8333,91.3333 87.1667,91.3333 96.5,92C 97.7659,92.3095 98.9326,92.8095 100,93.5C 100.5,104.828 100.667,116.162 100.5,127.5C 101.5,127.5 102.5,127.5 103.5,127.5C 103.807,121.907 103.473,116.407 102.5,111C 103.139,106.879 103.805,102.713 104.5,98.5C 104.833,103.667 105.167,108.833 105.5,114C 105.473,119.58 104.806,124.914 103.5,130C 104.87,131.924 106.704,133.091 109,133.5C 113.482,133.185 117.649,132.185 121.5,130.5C 126.087,130.424 130.087,128.924 133.5,126C 133.167,125.667 132.833,125.333 132.5,125C 134.049,123.786 135.215,122.286 136,120.5C 136.667,109.5 136.667,98.5 136,87.5C 135.936,84.2369 135.102,81.2369 133.5,78.5C 135.489,77.3847 137.322,77.718 139,79.5C 140.03,79.1639 140.53,78.4972 140.5,77.5C 141.261,78.3909 142.261,79.0576 143.5,79.5C 145.834,78.0524 145.501,76.7191 142.5,75.5C 142.167,73.5 141.833,71.5 141.5,69.5C 142.433,53.4231 142.766,37.4231 142.5,21.5 Z"/></g>
<g><path style="opacity:1" fill="#2a9253" d="M 138.5,16.5 C 140.167,17.1667 141.833,17.8333 143.5,18.5C 148.193,22.8614 152.859,27.1948 157.5,31.5C 160.841,36.5051 164.174,41.5051 167.5,46.5C 167.5,47.1667 167.833,47.5 168.5,47.5C 169.871,51.5554 171.205,55.5554 172.5,59.5C 171.542,59.0472 170.708,58.3805 170,57.5C 169.46,54.6387 168.46,51.972 167,49.5C 165.594,48.3318 164.428,48.6652 163.5,50.5C 162.378,48.9564 162.711,47.623 164.5,46.5C 163.167,44.1667 161.833,41.8333 160.5,39.5C 158.311,38.8265 156.311,37.8265 154.5,36.5C 153.209,29.7015 149.209,24.7015 142.5,21.5C 141.739,20.6091 140.739,19.9424 139.5,19.5C 138.614,18.675 138.281,17.675 138.5,16.5 Z"/></g>
<g><path style="opacity:1" fill="#0d8f46" d="M 138.5,31.5 C 139.828,36.4558 140.495,41.7891 140.5,47.5C 140.167,52.8333 139.833,58.1667 139.5,63.5C 138.501,52.8541 138.168,42.1874 138.5,31.5 Z"/></g>
<g><path style="opacity:1" fill="#c4f0d3" d="M 75.5,60.5 C 86.7575,61.3117 98.0909,61.8117 109.5,62C 110.416,62.2784 111.082,62.7784 111.5,63.5C 99.1541,63.2319 87.1541,62.2319 75.5,60.5 Z"/></g>
<g><path style="opacity:1" fill="#248542" d="M 70.5,19.5 C 71.3305,30.3257 71.8305,41.3257 72,52.5C 72.1102,54.8483 73.2769,56.3483 75.5,57C 75.1667,57.3333 74.8333,57.6667 74.5,58C 75.6721,58.4186 76.6721,59.0853 77.5,60C 82.8333,60.1667 88.1667,60.3333 93.5,60.5C 99.2109,60.4949 104.544,59.8282 109.5,58.5C 114.743,59.5809 119.743,61.2476 124.5,63.5C 128.851,66.6887 132.351,70.6887 135,75.5C 135.5,56.8363 135.667,38.1696 135.5,19.5C 136.497,37.9925 136.83,56.6592 136.5,75.5C 138.483,75.1568 139.817,75.8235 140.5,77.5C 140.53,78.4972 140.03,79.1639 139,79.5C 137.322,77.718 135.489,77.3847 133.5,78.5C 135.102,81.2369 135.936,84.2369 136,87.5C 136.667,98.5 136.667,109.5 136,120.5C 135.215,122.286 134.049,123.786 132.5,125C 132.833,125.333 133.167,125.667 133.5,126C 130.087,128.924 126.087,130.424 121.5,130.5C 122.833,129.5 124.167,128.5 125.5,127.5C 129.099,125.737 131.932,123.07 134,119.5C 135.562,109.561 135.895,99.5606 135,89.5C 133.508,78.1955 127.674,70.1955 117.5,65.5C 115.898,63.9261 113.898,63.2594 111.5,63.5C 111.082,62.7784 110.416,62.2784 109.5,62C 98.0909,61.8117 86.7575,61.3117 75.5,60.5C 75.1667,60.5 74.8333,60.5 74.5,60.5C 72.3963,58.6282 71.063,56.2948 70.5,53.5C 70.5,42.1667 70.5,30.8333 70.5,19.5 Z"/></g>
<g><path style="opacity:1" fill="#c9f0d6" d="M 111.5,28.5 C 108.825,37.5894 107.825,46.9228 108.5,56.5C 112.938,56.9163 117.271,57.9163 121.5,59.5C 122.524,60.8518 123.524,62.1851 124.5,63.5C 119.743,61.2476 114.743,59.5809 109.5,58.5C 108.391,58.4431 107.391,58.1098 106.5,57.5C 106.334,50.1591 106.5,42.8258 107,35.5C 108.026,32.7613 109.526,30.428 111.5,28.5 Z"/></g>
<g><path style="opacity:1" fill="#d4f5da" d="M 135.5,19.5 C 135.667,38.1696 135.5,56.8363 135,75.5C 132.351,70.6887 128.851,66.6887 124.5,63.5C 126.153,64.6045 127.82,64.7712 129.5,64C 130.158,65.9045 131.325,67.4045 133,68.5C 133.333,67.8333 133.667,67.1667 134,66.5C 134.667,51.8333 134.667,37.1667 134,22.5C 129.891,21.444 125.725,21.444 121.5,22.5C 125.833,20.4983 130.5,19.4983 135.5,19.5 Z"/></g>
<g><path style="opacity:1" fill="#fcfdfc" d="M 124.5,63.5 C 123.524,62.1851 122.524,60.8518 121.5,59.5C 117.271,57.9163 112.938,56.9163 108.5,56.5C 107.825,46.9228 108.825,37.5894 111.5,28.5C 113.861,24.9819 117.195,22.9819 121.5,22.5C 125.725,21.444 129.891,21.444 134,22.5C 134.667,37.1667 134.667,51.8333 134,66.5C 133.667,67.1667 133.333,67.8333 133,68.5C 131.325,67.4045 130.158,65.9045 129.5,64C 127.82,64.7712 126.153,64.6045 124.5,63.5 Z"/></g>
<g><path style="opacity:1" fill="#e2fcee" d="M 168.5,47.5 C 169.497,47.4701 170.164,47.9701 170.5,49C 173.442,56.6894 176.442,64.1894 179.5,71.5C 179.5,80.8333 179.5,90.1667 179.5,99.5C 179.167,99.5 178.833,99.5 178.5,99.5C 178.666,92.825 178.5,86.1583 178,79.5C 177.892,75.5349 177.059,71.8683 175.5,68.5C 174.735,65.3298 173.735,62.3298 172.5,59.5C 171.205,55.5554 169.871,51.5554 168.5,47.5 Z"/></g>
<g><path style="opacity:1" fill="#fbfdfc" d="M 43.5,79.5 C 47.5149,83.5126 51.8482,87.1793 56.5,90.5C 56.4701,91.4972 56.9701,92.1639 58,92.5C 61.2641,93.8186 64.5974,94.8186 68,95.5C 68.9156,104.272 68.4156,112.939 66.5,121.5C 65.5,121.5 64.5,121.5 63.5,121.5C 63.5,122.833 63.5,124.167 63.5,125.5C 63.5,126.167 63.5,126.833 63.5,127.5C 60.3409,128.885 57.0075,129.885 53.5,130.5C 49.8333,130.5 46.1667,130.5 42.5,130.5C 42.1701,113.325 42.5034,96.3251 43.5,79.5 Z"/></g>
<g><path style="opacity:1" fill="#d0f2d9" d="M 56.5,84.5 C 61.1564,85.7127 65.8231,86.8794 70.5,88C 81.1822,88.1676 91.8489,88.6676 102.5,89.5C 104.35,91.2137 105.684,93.2137 106.5,95.5C 104.66,93.832 102.66,92.332 100.5,91C 90.8333,90.6667 81.1667,90.3333 71.5,90C 65.835,89.6156 60.835,87.7823 56.5,84.5 Z"/></g>
<g><path style="opacity:1" fill="#2d8d4d" d="M 43.5,69.5 C 46.0197,76.0232 50.3531,81.0232 56.5,84.5C 60.835,87.7823 65.835,89.6156 71.5,90C 81.1667,90.3333 90.8333,90.6667 100.5,91C 102.66,92.332 104.66,93.832 106.5,95.5C 107.459,107.45 107.793,119.45 107.5,131.5C 112.203,131.563 116.87,131.229 121.5,130.5C 117.649,132.185 113.482,133.185 109,133.5C 106.704,133.091 104.87,131.924 103.5,130C 104.806,124.914 105.473,119.58 105.5,114C 105.167,108.833 104.833,103.667 104.5,98.5C 103.805,102.713 103.139,106.879 102.5,111C 103.473,116.407 103.807,121.907 103.5,127.5C 102.5,127.5 101.5,127.5 100.5,127.5C 100.667,116.162 100.5,104.828 100,93.5C 98.9326,92.8095 97.7659,92.3095 96.5,92C 87.1667,91.3333 77.8333,91.3333 68.5,92C 70.2909,92.4152 71.6243,93.4152 72.5,95C 71.6851,102.087 71.1851,109.253 71,116.5C 71.0148,121.97 68.5148,125.637 63.5,127.5C 63.5,126.833 63.5,126.167 63.5,125.5C 66.5555,123.737 68.3889,121.07 69,117.5C 69.4997,109.507 69.6664,101.507 69.5,93.5C 65.0539,92.8782 60.7205,91.8782 56.5,90.5C 51.8482,87.1793 47.5149,83.5126 43.5,79.5C 43.573,77.9731 42.9063,76.9731 41.5,76.5C 43.1675,74.5214 43.8342,72.188 43.5,69.5 Z"/></g>
<g><path style="opacity:1" fill="#d6f9dd" d="M 41.5,76.5 C 42.9063,76.9731 43.573,77.9731 43.5,79.5C 42.5034,96.3251 42.1701,113.325 42.5,130.5C 46.1667,130.5 49.8333,130.5 53.5,130.5C 49.7016,131.483 45.7016,131.817 41.5,131.5C 41.5,113.167 41.5,94.8333 41.5,76.5 Z"/></g>
<g><path style="opacity:1" fill="#e1fce6" d="M 56.5,90.5 C 60.7205,91.8782 65.0539,92.8782 69.5,93.5C 69.6664,101.507 69.4997,109.507 69,117.5C 68.3889,121.07 66.5555,123.737 63.5,125.5C 63.5,124.167 63.5,122.833 63.5,121.5C 64.5,121.5 65.5,121.5 66.5,121.5C 68.4156,112.939 68.9156,104.272 68,95.5C 64.5974,94.8186 61.2641,93.8186 58,92.5C 56.9701,92.1639 56.4701,91.4972 56.5,90.5 Z"/></g>
<g><path style="opacity:1" fill="#309457" d="M 175.5,68.5 C 177.059,71.8683 177.892,75.5349 178,79.5C 178.5,86.1583 178.666,92.825 178.5,99.5C 177.023,103.233 176.189,107.233 176,111.5C 174.485,117.237 172.319,122.571 169.5,127.5C 169.335,124.482 169.502,121.482 170,118.5C 171.696,112.756 173.529,107.089 175.5,101.5C 176.62,90.5017 176.62,79.5017 175.5,68.5 Z"/></g>
<g><path style="opacity:1" fill="#edfcee" d="M 106.5,95.5 C 107.787,96.8714 108.453,98.7047 108.5,101C 109.001,110.178 109.667,119.345 110.5,128.5C 111.939,129.063 113.439,129.397 115,129.5C 118.527,128.909 122.027,128.242 125.5,127.5C 124.167,128.5 122.833,129.5 121.5,130.5C 116.87,131.229 112.203,131.563 107.5,131.5C 107.793,119.45 107.459,107.45 106.5,95.5 Z"/></g>
<g><path style="opacity:1" fill="#fbfefc" d="M 178.5,99.5 C 178.833,99.5 179.167,99.5 179.5,99.5C 179.5,126.167 179.5,152.833 179.5,179.5C 157.167,179.5 134.833,179.5 112.5,179.5C 113.162,177.168 114.495,176.501 116.5,177.5C 120.111,176.371 123.611,175.038 127,173.5C 127.689,174.357 128.522,175.023 129.5,175.5C 131.228,171.466 134.561,168.466 139.5,166.5C 140.281,167.737 141.281,168.737 142.5,169.5C 143.137,166.187 144.137,162.854 145.5,159.5C 155.919,150.669 163.919,140.003 169.5,127.5C 172.319,122.571 174.485,117.237 176,111.5C 176.189,107.233 177.023,103.233 178.5,99.5 Z"/></g>
<g><path style="opacity:1" fill="#daf7e1" d="M 117.5,65.5 C 127.674,70.1955 133.508,78.1955 135,89.5C 135.895,99.5606 135.562,109.561 134,119.5C 131.932,123.07 129.099,125.737 125.5,127.5C 126.942,126.18 127.608,124.514 127.5,122.5C 128.675,122.719 129.675,122.386 130.5,121.5C 132.168,119.658 133.168,117.492 133.5,115C 135.744,101.599 134.077,88.766 128.5,76.5C 124.495,75.8288 122.162,73.4955 121.5,69.5C 119.192,69.0345 117.858,67.7012 117.5,65.5 Z"/></g>
<g><path style="opacity:1" fill="#e0fbed" d="M -0.5,95.5 C 1.45166,109.029 5.45166,122.029 11.5,134.5C 10.3569,134.092 9.35686,133.425 8.5,132.5C 7.65165,128.849 5.81832,125.849 3,123.5C 1.9058,117.017 0.739129,110.684 -0.5,104.5C -0.5,101.5 -0.5,98.5 -0.5,95.5 Z"/></g>
<g><path style="opacity:1" fill="#fbfefc" d="M -0.5,104.5 C 0.739129,110.684 1.9058,117.017 3,123.5C 5.81832,125.849 7.65165,128.849 8.5,132.5C 9.35686,133.425 10.3569,134.092 11.5,134.5C 14.5571,138.258 17.3904,142.258 20,146.5C 24.4262,151.434 29.2595,155.767 34.5,159.5C 38.273,163.227 42.6063,166.227 47.5,168.5C 52.2436,171.862 57.5769,173.862 63.5,174.5C 63.8417,175.338 64.5084,175.672 65.5,175.5C 70.1344,176.96 74.8011,178.293 79.5,179.5C 52.8333,179.5 26.1667,179.5 -0.5,179.5C -0.5,154.5 -0.5,129.5 -0.5,104.5 Z"/></g>
<g><path style="opacity:1" fill="#2e9257" d="M 6.5,57.5 C 7.04212,61.5443 6.20878,65.211 4,68.5C 3.22196,80.1669 2.88863,91.8336 3,103.5C 3.38348,109.776 5.38348,115.443 9,120.5C 9.76109,126.2 11.9278,131.2 15.5,135.5C 20.1648,140.685 24.3315,146.351 28,152.5C 29.8187,154.503 31.9854,155.836 34.5,156.5C 34.5,157.5 34.5,158.5 34.5,159.5C 29.2595,155.767 24.4262,151.434 20,146.5C 17.3904,142.258 14.5571,138.258 11.5,134.5C 5.45166,122.029 1.45166,109.029 -0.5,95.5C -0.5,91.1667 -0.5,86.8333 -0.5,82.5C 0.73791,78.3805 1.57124,74.0472 2,69.5C 3.2115,65.265 4.7115,61.265 6.5,57.5 Z"/></g>
<g><path style="opacity:1" fill="#228947" d="M 121.5,157.5 C 132.298,158.38 136.631,153.713 134.5,143.5C 133.746,140.909 132.079,139.076 129.5,138C 118.329,136.514 114.163,141.347 117,152.5C 118.045,153.373 118.878,154.373 119.5,155.5C 116.833,154.167 114.167,154.167 111.5,155.5C 112.582,154.406 113.248,153.073 113.5,151.5C 113.253,150.287 112.586,149.62 111.5,149.5C 110.98,146.879 109.313,144.545 106.5,142.5C 106.167,142.833 105.833,143.167 105.5,143.5C 107.996,146.193 107.33,147.859 103.5,148.5C 103.147,150.635 103.98,151.968 106,152.5C 107.507,151.445 109.007,150.445 110.5,149.5C 109.538,153.146 107.205,154.313 103.5,153C 101.006,149.353 100.84,145.519 103,141.5C 106.234,139.937 108.734,140.77 110.5,144C 111.448,144.483 112.448,144.649 113.5,144.5C 113.392,139.424 110.726,137.091 105.5,137.5C 100.651,138.012 97.6513,140.679 96.5,145.5C 95.1825,145.821 93.8492,146.154 92.5,146.5C 90.0939,144.558 87.4272,143.391 84.5,143C 81.6783,146.534 82.0117,149.7 85.5,152.5C 86.6951,150.703 88.3618,149.703 90.5,149.5C 89.5385,153.146 87.2051,154.313 83.5,153C 81.3088,149.77 80.9755,146.27 82.5,142.5C 84.7676,141.456 87.1009,141.289 89.5,142C 92.0556,146.78 93.5556,146.613 94,141.5C 88.7402,136.235 83.4069,136.235 78,141.5C 75.5705,148.035 77.0705,153.368 82.5,157.5C 80.0968,157.607 78.2635,156.607 77,154.5C 76.7216,155.416 76.2216,156.082 75.5,156.5C 74.1103,150.331 72.1103,144.331 69.5,138.5C 67.4844,137.306 65.4844,137.306 63.5,138.5C 63.4142,137.504 63.7476,136.671 64.5,136C 66.5,135.333 68.5,135.333 70.5,136C 71.7721,139.213 73.1054,142.38 74.5,145.5C 75.0999,141.532 76.4332,137.865 78.5,134.5C 79.5032,136.542 80.8366,136.875 82.5,135.5C 86.0344,136.131 89.5344,136.798 93,137.5C 94.0674,136.809 95.2341,136.309 96.5,136C 95.2341,135.691 94.0674,135.191 93,134.5C 92.4092,133.517 92.7425,132.85 94,132.5C 96.2252,134.75 98.7252,135.417 101.5,134.5C 103.932,135.4 106.432,136.066 109,136.5C 116.927,136.118 124.76,135.785 132.5,135.5C 133.814,136.313 134.981,137.313 136,138.5C 136.896,143.949 136.563,149.282 135,154.5C 132.191,157.567 128.691,159.234 124.5,159.5C 123.261,159.058 122.261,158.391 121.5,157.5 Z"/></g>
<g><path style="opacity:1" fill="#29894b" d="M 63.5,127.5 C 63.5299,128.497 63.0299,129.164 62,129.5C 57.0694,131.087 52.236,132.754 47.5,134.5C 47.7093,135.086 48.0426,135.586 48.5,136C 51.7603,136.784 54.9269,136.617 58,135.5C 58.5,136 59,136.5 59.5,137C 57.799,140.637 56.799,144.47 56.5,148.5C 53.2618,146.361 49.7618,144.694 46,143.5C 45.3877,141.763 46.0543,140.763 48,140.5C 50.2666,141.271 52.1,142.604 53.5,144.5C 56.1225,142.125 55.7892,139.959 52.5,138C 50.5273,137.505 48.5273,137.338 46.5,137.5C 46.5,136.167 46.5,134.833 46.5,133.5C 45.1667,133.5 43.8333,133.5 42.5,133.5C 42.1667,132.833 41.8333,132.167 41.5,131.5C 45.7016,131.817 49.7016,131.483 53.5,130.5C 57.0075,129.885 60.3409,128.885 63.5,127.5 Z"/></g>
<g><path style="opacity:1" fill="#20904e" d="M 169.5,127.5 C 163.919,140.003 155.919,150.669 145.5,159.5C 144.833,159.5 144.167,159.5 143.5,159.5C 142.789,156.136 143.956,153.803 147,152.5C 147.764,148.528 149.931,146.861 153.5,147.5C 154.33,145.865 154.497,144.198 154,142.5C 157.287,141.884 160.121,140.384 162.5,138C 163.732,133.686 166.065,130.186 169.5,127.5 Z"/></g>
<g><path style="opacity:1" fill="#ddf7dc" d="M 46.5,137.5 C 48.5273,137.338 50.5273,137.505 52.5,138C 55.7892,139.959 56.1225,142.125 53.5,144.5C 52.1,142.604 50.2666,141.271 48,140.5C 46.0543,140.763 45.3877,141.763 46,143.5C 49.7618,144.694 53.2618,146.361 56.5,148.5C 57.0293,154.306 54.3626,157.306 48.5,157.5C 45.2155,157.731 42.7155,156.397 41,153.5C 40.2274,151.648 40.7274,150.314 42.5,149.5C 43.8724,151.868 45.8724,153.535 48.5,154.5C 50.3969,154.272 51.7303,153.272 52.5,151.5C 49.8286,149.541 46.8286,148.041 43.5,147C 41.771,145.211 41.1043,143.044 41.5,140.5C 42.6594,138.75 44.326,137.75 46.5,137.5 Z"/></g>
<g><path style="opacity:1" fill="#139440" d="M 96.5,145.5 C 96.5,147.5 96.5,149.5 96.5,151.5C 96.631,152.239 96.4643,152.906 96,153.5C 95.79,151.942 95.29,150.609 94.5,149.5C 93.1667,149.5 91.8333,149.5 90.5,149.5C 88.3618,149.703 86.6951,150.703 85.5,152.5C 82.0117,149.7 81.6783,146.534 84.5,143C 87.4272,143.391 90.0939,144.558 92.5,146.5C 93.8492,146.154 95.1825,145.821 96.5,145.5 Z"/></g>
<g><path style="opacity:1" fill="#e3f8e1" d="M 134.5,143.5 C 134.663,145.857 134.497,148.19 134,150.5C 133.586,150.957 133.086,151.291 132.5,151.5C 131.832,149.031 131.165,146.698 130.5,144.5C 130.5,143.833 130.167,143.5 129.5,143.5C 127.528,139.908 125.028,139.574 122,142.5C 120,145.833 120,149.167 122,152.5C 122.671,153.252 123.504,153.586 124.5,153.5C 125.567,155.879 124.567,156.879 121.5,156.5C 120.833,156.167 120.167,155.833 119.5,155.5C 118.878,154.373 118.045,153.373 117,152.5C 114.163,141.347 118.329,136.514 129.5,138C 132.079,139.076 133.746,140.909 134.5,143.5 Z"/></g>
<g><path style="opacity:1" fill="#278348" d="M 129.5,143.5 C 130.167,143.5 130.5,143.833 130.5,144.5C 130.663,146.857 130.497,149.19 130,151.5C 128.556,153.155 126.722,153.822 124.5,153.5C 123.504,153.586 122.671,153.252 122,152.5C 120,149.167 120,145.833 122,142.5C 125.028,139.574 127.528,139.908 129.5,143.5 Z"/></g>
<g><path style="opacity:1" fill="#e0f8e3" d="M 75.5,156.5 C 75.5,157.167 75.1667,157.5 74.5,157.5C 72.2988,157.142 70.9655,155.808 70.5,153.5C 66.3259,151.504 63.3259,152.504 61.5,156.5C 60.675,157.386 59.675,157.719 58.5,157.5C 58.7506,153.751 59.4172,150.085 60.5,146.5C 62.0198,144.11 63.0198,141.443 63.5,138.5C 65.4844,137.306 67.4844,137.306 69.5,138.5C 72.1103,144.331 74.1103,150.331 75.5,156.5 Z"/></g>
<g><path style="opacity:1" fill="#0c9440" d="M 129.5,143.5 C 129.5,145.833 129.5,148.167 129.5,150.5C 127.396,150.799 125.396,150.466 123.5,149.5C 124.053,147.273 124.053,144.939 123.5,142.5C 125.565,142.517 127.565,142.85 129.5,143.5 Z"/></g>
<g><path style="opacity:1" fill="#599969" d="M 65.5,143.5 C 66.4959,143.414 67.3292,143.748 68,144.5C 70.5584,148.458 69.3917,150.124 64.5,149.5C 64.8333,147.5 65.1667,145.5 65.5,143.5 Z"/></g>
<g><path style="opacity:1" fill="#0f9a41" d="M 111.5,149.5 C 111.167,149.5 110.833,149.5 110.5,149.5C 109.007,150.445 107.507,151.445 106,152.5C 103.98,151.968 103.147,150.635 103.5,148.5C 107.33,147.859 107.996,146.193 105.5,143.5C 105.833,143.167 106.167,142.833 106.5,142.5C 109.313,144.545 110.98,146.879 111.5,149.5 Z"/></g>
<g><path style="opacity:1" fill="#d5f3d9" d="M 90.5,149.5 C 91.8333,149.5 93.1667,149.5 94.5,149.5C 93.3188,156.106 89.3188,158.773 82.5,157.5C 77.0705,153.368 75.5705,148.035 78,141.5C 83.4069,136.235 88.7402,136.235 94,141.5C 93.5556,146.613 92.0556,146.78 89.5,142C 87.1009,141.289 84.7676,141.456 82.5,142.5C 80.9755,146.27 81.3088,149.77 83.5,153C 87.2051,154.313 89.5385,153.146 90.5,149.5 Z"/></g>
<g><path style="opacity:1" fill="#398f57" d="M 41.5,140.5 C 41.1043,143.044 41.771,145.211 43.5,147C 46.8286,148.041 49.8286,149.541 52.5,151.5C 51.7303,153.272 50.3969,154.272 48.5,154.5C 45.8724,153.535 43.8724,151.868 42.5,149.5C 41.3852,147.693 40.7186,145.693 40.5,143.5C 40.5195,142.274 40.8529,141.274 41.5,140.5 Z"/></g>
<g><path style="opacity:1" fill="#c2ebcb" d="M 134.5,143.5 C 136.631,153.713 132.298,158.38 121.5,157.5C 121.5,157.167 121.5,156.833 121.5,156.5C 124.567,156.879 125.567,155.879 124.5,153.5C 126.722,153.822 128.556,153.155 130,151.5C 130.497,149.19 130.663,146.857 130.5,144.5C 131.165,146.698 131.832,149.031 132.5,151.5C 133.086,151.291 133.586,150.957 134,150.5C 134.497,148.19 134.663,145.857 134.5,143.5 Z"/></g>
<g><path style="opacity:1" fill="#228448" d="M 94.5,149.5 C 95.29,150.609 95.79,151.942 96,153.5C 96.4643,152.906 96.631,152.239 96.5,151.5C 100.013,157.266 105.013,158.933 111.5,156.5C 111.5,157.5 111.5,158.5 111.5,159.5C 105.865,159.176 100.532,157.843 95.5,155.5C 92.3812,157.722 88.8812,159.055 85,159.5C 84.0053,158.934 83.172,158.267 82.5,157.5C 89.3188,158.773 93.3188,156.106 94.5,149.5 Z"/></g>
<g><path style="opacity:1" fill="#ddf6dc" d="M 110.5,149.5 C 110.833,149.5 111.167,149.5 111.5,149.5C 112.586,149.62 113.253,150.287 113.5,151.5C 113.248,153.073 112.582,154.406 111.5,155.5C 111.5,155.833 111.5,156.167 111.5,156.5C 105.013,158.933 100.013,157.266 96.5,151.5C 96.5,149.5 96.5,147.5 96.5,145.5C 97.6513,140.679 100.651,138.012 105.5,137.5C 110.726,137.091 113.392,139.424 113.5,144.5C 112.448,144.649 111.448,144.483 110.5,144C 108.734,140.77 106.234,139.937 103,141.5C 100.84,145.519 101.006,149.353 103.5,153C 107.205,154.313 109.538,153.146 110.5,149.5 Z"/></g>
<g><path style="opacity:1" fill="#1a8d48" d="M 60.5,146.5 C 59.4172,150.085 58.7506,153.751 58.5,157.5C 59.675,157.719 60.675,157.386 61.5,156.5C 63.3259,152.504 66.3259,151.504 70.5,153.5C 70.9655,155.808 72.2988,157.142 74.5,157.5C 73.8166,159.176 72.4832,159.843 70.5,159.5C 71.0921,155.926 69.5921,153.926 66,153.5C 65.1667,155.5 64.3333,157.5 63.5,159.5C 62.8333,159.167 62.1667,158.833 61.5,158.5C 58.7522,162.959 54.7522,164.459 49.5,163C 49.3103,161.172 48.9769,159.338 48.5,157.5C 54.3626,157.306 57.0293,154.306 56.5,148.5C 57.2216,148.918 57.7216,149.584 58,150.5C 58.6082,148.934 59.4415,147.6 60.5,146.5 Z"/></g>
<g><path style="opacity:1" fill="#e6f9ee" d="M 143.5,159.5 C 144.167,159.5 144.833,159.5 145.5,159.5C 144.137,162.854 143.137,166.187 142.5,169.5C 141.281,168.737 140.281,167.737 139.5,166.5C 134.561,168.466 131.228,171.466 129.5,175.5C 128.522,175.023 127.689,174.357 127,173.5C 123.611,175.038 120.111,176.371 116.5,177.5C 114.495,176.501 113.162,177.168 112.5,179.5C 107.833,179.5 103.167,179.5 98.5,179.5C 105.288,177.368 112.288,175.535 119.5,174C 121.618,172.918 123.618,171.751 125.5,170.5C 126.609,170.443 127.609,170.11 128.5,169.5C 134.119,166.874 139.119,163.541 143.5,159.5 Z"/></g>
<g><path style="opacity:1" fill="#268b4f" d="M 143.5,159.5 C 139.119,163.541 134.119,166.874 128.5,169.5C 128.511,167.983 129.177,166.816 130.5,166C 132.842,164.829 135.176,163.662 137.5,162.5C 138.712,160.077 140.712,159.077 143.5,159.5 Z"/></g>
<g><path style="opacity:1" fill="#39905b" d="M 47.5,168.5 C 53.5543,168.872 58.8877,170.872 63.5,174.5C 57.5769,173.862 52.2436,171.862 47.5,168.5 Z"/></g>
<g><path style="opacity:1" fill="#359a5c" d="M 125.5,170.5 C 123.618,171.751 121.618,172.918 119.5,174C 112.288,175.535 105.288,177.368 98.5,179.5C 92.1667,179.5 85.8333,179.5 79.5,179.5C 74.8011,178.293 70.1344,176.96 65.5,175.5C 76.806,176.732 88.1393,177.232 99.5,177C 108.056,174.437 116.722,172.27 125.5,170.5 Z"/></g>
</svg>
